{
	"asset":{
		"generator":"Khronos glTF Blender I/O v4.0.44",
		"version":"2.0"
	},
	"extensionsUsed":[
		"KHR_materials_transmission",
		"KHR_materials_specular",
		"KHR_materials_ior"
	],
	"scene":0,
	"scenes":[
		{
			"name":"Scene",
			"nodes":[
				2,
				3,
				4,
				12,
				13,
				14,
				15,
				16,
				17,
				18,
				19
			]
		}
	],
	"nodes":[
		{
			"name":"GLTF_SceneRootNode",
			"rotation":[
				0.70710688829422,
				0,
				0,
				0.7071066498756409
			]
		},
		{
			"children":[
				0
			],
			"name":"root"
		},
		{
			"children":[
				1
			],
			"name":"Sketchfab_model",
			"rotation":[
				-0.70710688829422,
				0,
				0,
				0.7071066498756409
			]
		},
		{
			"name":"Flag_Rigged_57"
		},
		{
			"name":"Cylinder.002_59",
			"rotation":[
				-0.0020508936140686274,
				-0.9893917441368103,
				0.0013903360813856125,
				0.14525090157985687
			],
			"scale":[
				0.5006710886955261,
				0.5006713271141052,
				0.5006711483001709
			],
			"translation":[
				-0.17240148782730103,
				-0.14605994522571564,
				0.0016373414546251297
			]
		},
		{
			"mesh":0,
			"name":"FlagPole_FlagPole1_0"
		},
		{
			"children":[
				5
			],
			"name":"FlagPole"
		},
		{
			"mesh":1,
			"name":"Object_12",
			"rotation":[
				-0.10472770035266876,
				-0.020814191550016403,
				-0.33150169253349304,
				0.9373929500579834
			],
			"translation":[
				-0.734190046787262,
				8.172642707824707,
				0.27064090967178345
			]
		},
		{
			"children":[
				6,
				7
			],
			"name":"FlagRig"
		},
		{
			"children":[
				8
			],
			"name":"RootNode"
		},
		{
			"children":[
				9
			],
			"name":"Object_2"
		},
		{
			"children":[
				10
			],
			"name":"3ab5c07a141b4b839f2258e02c04de69.fbx",
			"rotation":[
				0.7071068286895752,
				0,
				0,
				0.7071067094802856
			],
			"scale":[
				0.009999999776482582,
				0.009999999776482582,
				0.010000000707805157
			]
		},
		{
			"children":[
				11
			],
			"name":"Sketchfab_model.001",
			"rotation":[
				-0.7505602240562439,
				-0.09695306420326233,
				-0.4468806982040405,
				0.47702938318252563
			],
			"scale":[
				14.476798057556152,
				14.476799011230469,
				14.476799011230469
			],
			"translation":[
				-0.4773540794849396,
				1.1275415420532227,
				-0.06699419766664505
			]
		},
		{
			"mesh":2,
			"name":"Body",
			"rotation":[
				0.7071068286895752,
				0,
				0,
				0.7071068286895752
			],
			"scale":[
				0.009999998845160007,
				0.010000000707805157,
				0.009999998845160007
			]
		},
		{
			"mesh":3,
			"name":"Bottoms",
			"rotation":[
				0.7071068286895752,
				0,
				0,
				0.7071068286895752
			],
			"scale":[
				0.009999998845160007,
				0.010000000707805157,
				0.009999998845160007
			]
		},
		{
			"mesh":4,
			"name":"default",
			"rotation":[
				0.7071068286895752,
				0,
				0,
				0.7071068286895752
			],
			"scale":[
				0.009999999776482582,
				0.009999999776482582,
				0.009999999776482582
			]
		},
		{
			"mesh":5,
			"name":"default001",
			"rotation":[
				0.7071068286895752,
				0,
				0,
				0.7071068286895752
			],
			"scale":[
				0.009999999776482582,
				0.010000000707805157,
				0.009999999776482582
			]
		},
		{
			"mesh":6,
			"name":"Object001",
			"rotation":[
				0.7071068286895752,
				0,
				0,
				0.7071068286895752
			],
			"scale":[
				0.009999999776482582,
				0.009999999776482582,
				0.009999999776482582
			]
		},
		{
			"mesh":7,
			"name":"Shoes",
			"rotation":[
				0.7071068286895752,
				0,
				0,
				0.7071068286895752
			],
			"scale":[
				0.009999998845160007,
				0.010000000707805157,
				0.009999998845160007
			]
		},
		{
			"mesh":8,
			"name":"Tops",
			"rotation":[
				0.7071068286895752,
				0,
				0,
				0.7071068286895752
			],
			"scale":[
				0.009999999776482582,
				0.009999999776482582,
				0.009999999776482582
			]
		}
	],
	"materials":[
		{
			"doubleSided":true,
			"name":"FlagPole1",
			"normalTexture":{
				"index":0
			},
			"occlusionTexture":{
				"index":1
			},
			"pbrMetallicRoughness":{
				"baseColorTexture":{
					"index":2
				},
				"metallicFactor":0,
				"metallicRoughnessTexture":{
					"index":1
				}
			}
		},
		{
			"alphaMode":"BLEND",
			"doubleSided":true,
			"extensions":{
				"KHR_materials_transmission":{
					"transmissionFactor":0.20000000298023224
				}
			},
			"name":"Flag",
			"normalTexture":{
				"index":3
			},
			"pbrMetallicRoughness":{
				"baseColorFactor":[
					1,
					1,
					1,
					0.800000011920929
				],
				"baseColorTexture":{
					"index":4
				},
				"metallicFactor":0,
				"metallicRoughnessTexture":{
					"index":5
				}
			}
		},
		{
			"alphaMode":"BLEND",
			"doubleSided":true,
			"extensions":{
				"KHR_materials_specular":{
					"specularTexture":{
						"index":6
					}
				},
				"KHR_materials_ior":{
					"ior":1.4500000476837158
				}
			},
			"name":"bodymat",
			"pbrMetallicRoughness":{
				"baseColorTexture":{
					"index":7
				},
				"roughnessFactor":0.5527864098548889
			}
		},
		{
			"alphaMode":"BLEND",
			"doubleSided":true,
			"extensions":{
				"KHR_materials_specular":{
					"specularTexture":{
						"index":8
					}
				},
				"KHR_materials_ior":{
					"ior":1.4500000476837158
				}
			},
			"name":"shoesmat",
			"pbrMetallicRoughness":{
				"baseColorTexture":{
					"index":9
				},
				"roughnessFactor":0.5527864098548889
			}
		},
		{
			"alphaMode":"BLEND",
			"doubleSided":true,
			"extensions":{
				"KHR_materials_specular":{
					"specularColorFactor":[
						2.0,
						2.0,
						2.0
					]
				},
				"KHR_materials_ior":{
					"ior":1.4500000476837158
				}
			},
			"name":"headmat",
			"pbrMetallicRoughness":{
				"baseColorTexture":{
					"index":10
				},
				"roughnessFactor":0.5527864098548889
			}
		},
		{
			"alphaMode":"BLEND",
			"doubleSided":true,
			"extensions":{
				"KHR_materials_specular":{
					"specularColorFactor":[
						2.0,
						2.0,
						2.0
					]
				},
				"KHR_materials_ior":{
					"ior":1.4500000476837158
				}
			},
			"name":"hair_orenmat",
			"pbrMetallicRoughness":{
				"baseColorTexture":{
					"index":11
				},
				"roughnessFactor":0.5527864098548889
			}
		},
		{
			"alphaMode":"BLEND",
			"doubleSided":true,
			"extensions":{
				"KHR_materials_specular":{
					"specularTexture":{
						"index":12
					}
				},
				"KHR_materials_ior":{
					"ior":1.4500000476837158
				}
			},
			"name":"shirtmat",
			"pbrMetallicRoughness":{
				"baseColorTexture":{
					"index":13
				},
				"roughnessFactor":0.5527864098548889
			}
		}
	],
	"meshes":[
		{
			"name":"FlagPole_FlagPole1_0",
			"primitives":[
				{
					"attributes":{
						"POSITION":0,
						"NORMAL":1,
						"TEXCOORD_0":2
					},
					"indices":3,
					"material":0
				}
			]
		},
		{
			"name":"FlagMesh_Flag_0",
			"primitives":[
				{
					"attributes":{
						"POSITION":4,
						"NORMAL":5,
						"TEXCOORD_0":6
					},
					"indices":7,
					"material":1
				}
			]
		},
		{
			"name":"Bodymesh",
			"primitives":[
				{
					"attributes":{
						"POSITION":8,
						"NORMAL":9,
						"TEXCOORD_0":10
					},
					"indices":11,
					"material":2
				}
			]
		},
		{
			"name":"Bottomsmesh",
			"primitives":[
				{
					"attributes":{
						"POSITION":12,
						"NORMAL":13,
						"TEXCOORD_0":14
					},
					"indices":15,
					"material":3
				}
			]
		},
		{
			"name":"defaultmesh",
			"primitives":[
				{
					"attributes":{
						"POSITION":16,
						"NORMAL":17,
						"TEXCOORD_0":18
					},
					"indices":19,
					"material":2
				}
			]
		},
		{
			"name":"default001mesh",
			"primitives":[
				{
					"attributes":{
						"POSITION":20,
						"NORMAL":21,
						"TEXCOORD_0":22
					},
					"indices":23,
					"material":4
				}
			]
		},
		{
			"name":"Object001mesh",
			"primitives":[
				{
					"attributes":{
						"POSITION":24,
						"NORMAL":25,
						"TEXCOORD_0":26
					},
					"indices":27,
					"material":5
				}
			]
		},
		{
			"name":"Shoesmesh",
			"primitives":[
				{
					"attributes":{
						"POSITION":28,
						"NORMAL":29,
						"TEXCOORD_0":30
					},
					"indices":31,
					"material":3
				}
			]
		},
		{
			"name":"Topsmesh",
			"primitives":[
				{
					"attributes":{
						"POSITION":32,
						"NORMAL":33,
						"TEXCOORD_0":34
					},
					"indices":35,
					"material":6
				}
			]
		}
	],
	"textures":[
		{
			"sampler":0,
			"source":0
		},
		{
			"sampler":0,
			"source":1
		},
		{
			"sampler":0,
			"source":2
		},
		{
			"sampler":0,
			"source":3
		},
		{
			"sampler":0,
			"source":4
		},
		{
			"sampler":0,
			"source":5
		},
		{
			"sampler":0,
			"source":6
		},
		{
			"sampler":0,
			"source":7
		},
		{
			"sampler":0,
			"source":8
		},
		{
			"sampler":0,
			"source":9
		},
		{
			"sampler":0,
			"source":10
		},
		{
			"sampler":0,
			"source":10
		},
		{
			"sampler":0,
			"source":11
		},
		{
			"sampler":0,
			"source":12
		}
	],
	"images":[
		{
			"mimeType":"image/png",
			"name":"Image_2",
			"uri":"Image_2.png"
		},
		{
			"mimeType":"image/png",
			"name":"Image_1",
			"uri":"Image_1.png"
		},
		{
			"mimeType":"image/jpeg",
			"name":"Image_0",
			"uri":"Image_0.jpg"
		},
		{
			"mimeType":"image/png",
			"name":"Image_5",
			"uri":"Image_5.png"
		},
		{
			"mimeType":"image/png",
			"name":"Image_3",
			"uri":"Image_3.png"
		},
		{
			"mimeType":"image/png",
			"name":"Image_4",
			"uri":"Image_4.png"
		},
		{
			"mimeType":"image/png",
			"name":"oren_model_Packed0_Specular",
			"uri":"oren_model_Packed0_Specular.png"
		},
		{
			"mimeType":"image/png",
			"name":"oren_model_Packed0_Diffuse",
			"uri":"oren_model_Packed0_Diffuse.png"
		},
		{
			"mimeType":"image/png",
			"name":"oren_model_Packed1_Specular",
			"uri":"oren_model_Packed1_Specular.png"
		},
		{
			"mimeType":"image/png",
			"name":"oren_model_Packed1_Diffuse",
			"uri":"oren_model_Packed1_Diffuse.png"
		},
		{
			"mimeType":"image/png",
			"name":"model",
			"uri":"model.png"
		},
		{
			"mimeType":"image/png",
			"name":"shirt_Packed1_Specular",
			"uri":"shirt_Packed1_Specular.png"
		},
		{
			"mimeType":"image/png",
			"name":"shirt_Packed1_Diffuse",
			"uri":"shirt_Packed1_Diffuse.png"
		}
	],
	"accessors":[
		{
			"bufferView":0,
			"componentType":5126,
			"count":1243,
			"max":[
				0.19088031351566315,
				13.421713829040527,
				0.19088029861450195
			],
			"min":[
				-0.3572692573070526,
				-0.051387786865234375,
				-0.19088028371334076
			],
			"type":"VEC3"
		},
		{
			"bufferView":1,
			"componentType":5126,
			"count":1243,
			"type":"VEC3"
		},
		{
			"bufferView":2,
			"componentType":5126,
			"count":1243,
			"type":"VEC2"
		},
		{
			"bufferView":3,
			"componentType":5123,
			"count":3864,
			"type":"SCALAR"
		},
		{
			"bufferView":4,
			"componentType":5126,
			"count":231,
			"max":[
				-1.261173129081726,
				3.4172887802124023,
				0.7033835053443909
			],
			"min":[
				-2.7603094577789307,
				1.8967523574829102,
				-2.4412753582000732
			],
			"type":"VEC3"
		},
		{
			"bufferView":5,
			"componentType":5126,
			"count":231,
			"type":"VEC3"
		},
		{
			"bufferView":6,
			"componentType":5126,
			"count":231,
			"type":"VEC2"
		},
		{
			"bufferView":7,
			"componentType":5123,
			"count":1200,
			"type":"SCALAR"
		},
		{
			"bufferView":8,
			"componentType":5126,
			"count":6009,
			"max":[
				87.72949981689453,
				11.308899879455566,
				-3.256200075149536
			],
			"min":[
				-89.0801010131836,
				-15.794899940490723,
				-158.5908966064453
			],
			"type":"VEC3"
		},
		{
			"bufferView":9,
			"componentType":5126,
			"count":6009,
			"type":"VEC3"
		},
		{
			"bufferView":10,
			"componentType":5126,
			"count":6009,
			"type":"VEC2"
		},
		{
			"bufferView":11,
			"componentType":5123,
			"count":32364,
			"type":"SCALAR"
		},
		{
			"bufferView":12,
			"componentType":5126,
			"count":2261,
			"max":[
				18.44529914855957,
				14.694299697875977,
				-2.9217000007629395
			],
			"min":[
				-18.663299560546875,
				-13.63659954071045,
				-104.89990234375
			],
			"type":"VEC3"
		},
		{
			"bufferView":13,
			"componentType":5126,
			"count":2261,
			"type":"VEC3"
		},
		{
			"bufferView":14,
			"componentType":5126,
			"count":2261,
			"type":"VEC2"
		},
		{
			"bufferView":15,
			"componentType":5123,
			"count":12012,
			"type":"SCALAR"
		},
		{
			"bufferView":16,
			"componentType":5126,
			"count":804,
			"max":[
				4.784200191497803,
				10.226499557495117,
				-168.89920043945312
			],
			"min":[
				-4.668600082397461,
				6.755499839782715,
				-172.43789672851562
			],
			"type":"VEC3"
		},
		{
			"bufferView":17,
			"componentType":5126,
			"count":804,
			"type":"VEC3"
		},
		{
			"bufferView":18,
			"componentType":5126,
			"count":804,
			"type":"VEC2"
		},
		{
			"bufferView":19,
			"componentType":5123,
			"count":4560,
			"type":"SCALAR"
		},
		{
			"bufferView":20,
			"componentType":5126,
			"count":12367,
			"max":[
				10.019700050354004,
				14.882100105285645,
				-146.63580322265625
			],
			"min":[
				-10.04069995880127,
				-9.31719970703125,
				-183.15280151367188
			],
			"type":"VEC3"
		},
		{
			"bufferView":21,
			"componentType":5126,
			"count":12367,
			"type":"VEC3"
		},
		{
			"bufferView":22,
			"componentType":5126,
			"count":12367,
			"type":"VEC2"
		},
		{
			"bufferView":23,
			"componentType":5123,
			"count":70212,
			"type":"SCALAR"
		},
		{
			"bufferView":24,
			"componentType":5126,
			"count":8628,
			"max":[
				11.574600219726562,
				13.937399864196777,
				-158.0955047607422
			],
			"min":[
				-11.930999755859375,
				-12.19219970703125,
				-187.908203125
			],
			"type":"VEC3"
		},
		{
			"bufferView":25,
			"componentType":5126,
			"count":8628,
			"type":"VEC3"
		},
		{
			"bufferView":26,
			"componentType":5126,
			"count":8628,
			"type":"VEC2"
		},
		{
			"bufferView":27,
			"componentType":5123,
			"count":33129,
			"type":"SCALAR"
		},
		{
			"bufferView":28,
			"componentType":5126,
			"count":4092,
			"max":[
				17.41119956970215,
				20.80340003967285,
				0.20280000567436218
			],
			"min":[
				-15.412699699401855,
				-9.915499687194824,
				-9.928099632263184
			],
			"type":"VEC3"
		},
		{
			"bufferView":29,
			"componentType":5126,
			"count":4092,
			"type":"VEC3"
		},
		{
			"bufferView":30,
			"componentType":5126,
			"count":4092,
			"type":"VEC2"
		},
		{
			"bufferView":31,
			"componentType":5123,
			"count":20856,
			"type":"SCALAR"
		},
		{
			"bufferView":32,
			"componentType":5126,
			"count":2592,
			"max":[
				68.43830108642578,
				16.386899948120117,
				-88.01460266113281
			],
			"min":[
				-71.07540130615234,
				-18.02589988708496,
				-160.3990936279297
			],
			"type":"VEC3"
		},
		{
			"bufferView":33,
			"componentType":5126,
			"count":2592,
			"type":"VEC3"
		},
		{
			"bufferView":34,
			"componentType":5126,
			"count":2592,
			"type":"VEC2"
		},
		{
			"bufferView":35,
			"componentType":5123,
			"count":13368,
			"type":"SCALAR"
		}
	],
	"bufferViews":[
		{
			"buffer":0,
			"byteLength":14916,
			"byteOffset":0,
			"target":34962
		},
		{
			"buffer":0,
			"byteLength":14916,
			"byteOffset":14916,
			"target":34962
		},
		{
			"buffer":0,
			"byteLength":9944,
			"byteOffset":29832,
			"target":34962
		},
		{
			"buffer":0,
			"byteLength":7728,
			"byteOffset":39776,
			"target":34963
		},
		{
			"buffer":0,
			"byteLength":2772,
			"byteOffset":47504,
			"target":34962
		},
		{
			"buffer":0,
			"byteLength":2772,
			"byteOffset":50276,
			"target":34962
		},
		{
			"buffer":0,
			"byteLength":1848,
			"byteOffset":53048,
			"target":34962
		},
		{
			"buffer":0,
			"byteLength":2400,
			"byteOffset":54896,
			"target":34963
		},
		{
			"buffer":0,
			"byteLength":72108,
			"byteOffset":57296,
			"target":34962
		},
		{
			"buffer":0,
			"byteLength":72108,
			"byteOffset":129404,
			"target":34962
		},
		{
			"buffer":0,
			"byteLength":48072,
			"byteOffset":201512,
			"target":34962
		},
		{
			"buffer":0,
			"byteLength":64728,
			"byteOffset":249584,
			"target":34963
		},
		{
			"buffer":0,
			"byteLength":27132,
			"byteOffset":314312,
			"target":34962
		},
		{
			"buffer":0,
			"byteLength":27132,
			"byteOffset":341444,
			"target":34962
		},
		{
			"buffer":0,
			"byteLength":18088,
			"byteOffset":368576,
			"target":34962
		},
		{
			"buffer":0,
			"byteLength":24024,
			"byteOffset":386664,
			"target":34963
		},
		{
			"buffer":0,
			"byteLength":9648,
			"byteOffset":410688,
			"target":34962
		},
		{
			"buffer":0,
			"byteLength":9648,
			"byteOffset":420336,
			"target":34962
		},
		{
			"buffer":0,
			"byteLength":6432,
			"byteOffset":429984,
			"target":34962
		},
		{
			"buffer":0,
			"byteLength":9120,
			"byteOffset":436416,
			"target":34963
		},
		{
			"buffer":0,
			"byteLength":148404,
			"byteOffset":445536,
			"target":34962
		},
		{
			"buffer":0,
			"byteLength":148404,
			"byteOffset":593940,
			"target":34962
		},
		{
			"buffer":0,
			"byteLength":98936,
			"byteOffset":742344,
			"target":34962
		},
		{
			"buffer":0,
			"byteLength":140424,
			"byteOffset":841280,
			"target":34963
		},
		{
			"buffer":0,
			"byteLength":103536,
			"byteOffset":981704,
			"target":34962
		},
		{
			"buffer":0,
			"byteLength":103536,
			"byteOffset":1085240,
			"target":34962
		},
		{
			"buffer":0,
			"byteLength":69024,
			"byteOffset":1188776,
			"target":34962
		},
		{
			"buffer":0,
			"byteLength":66258,
			"byteOffset":1257800,
			"target":34963
		},
		{
			"buffer":0,
			"byteLength":49104,
			"byteOffset":1324060,
			"target":34962
		},
		{
			"buffer":0,
			"byteLength":49104,
			"byteOffset":1373164,
			"target":34962
		},
		{
			"buffer":0,
			"byteLength":32736,
			"byteOffset":1422268,
			"target":34962
		},
		{
			"buffer":0,
			"byteLength":41712,
			"byteOffset":1455004,
			"target":34963
		},
		{
			"buffer":0,
			"byteLength":31104,
			"byteOffset":1496716,
			"target":34962
		},
		{
			"buffer":0,
			"byteLength":31104,
			"byteOffset":1527820,
			"target":34962
		},
		{
			"buffer":0,
			"byteLength":20736,
			"byteOffset":1558924,
			"target":34962
		},
		{
			"buffer":0,
			"byteLength":26736,
			"byteOffset":1579660,
			"target":34963
		}
	],
	"samplers":[
		{
			"magFilter":9729,
			"minFilter":9987
		}
	],
	"buffers":[
		{
			"byteLength":1606396,
			"uri":"OREN_FLAG_GIT.bin"
		}
	]
}
